<svg width="1159" height="716" viewBox="0 0 1159 716" fill="none" xmlns="http://www.w3.org/2000/svg">
<rect x="582.5" y="283.5" width="188" height="221" rx="4.5" stroke="#2A759A"/>
<rect x="582.5" y="56.5" width="188" height="221" rx="4.5" stroke="#2A759A"/>
<rect x="582.5" y="510.5" width="188" height="221" rx="4.5" stroke="#2A759A"/>
<rect x="970.5" y="283.5" width="188" height="221" rx="4.5" stroke="#2A759A"/>
<rect x="970.5" y="56.5" width="188" height="221" rx="4.5" stroke="#2A759A"/>
<rect x="970.5" y="510.5" width="188" height="221" rx="4.5" stroke="#2A759A"/>
<rect x="776.5" y="395.5" width="188" height="221" rx="4.5" stroke="#2A759A"/>
<rect x="776.5" y="622.5" width="188" height="221" rx="4.5" stroke="#2A759A"/>
<rect x="776.5" y="168.5" width="188" height="221" rx="4.5" stroke="#2A759A"/>
<rect x="776.5" y="-58.5" width="188" height="221" rx="4.5" stroke="#2A759A"/>
<rect x="388.5" y="-56.5" width="188" height="902" stroke="#2A759A"/>
<rect x="388.5" y="170.5" width="188" height="221" rx="4.5" stroke="#2A759A"/>
<rect x="388.5" y="397.5" width="188" height="221" rx="4.5" stroke="#2A759A"/>
<rect x="388.5" y="624.5" width="188" height="221" rx="4.5" stroke="#2A759A"/>
<rect x="194.5" y="510.5" width="188" height="221" rx="4.5" stroke="#2A759A"/>
<rect x="0.5" y="622.5" width="188" height="221" rx="4.5" stroke="#2A759A"/>
</svg>
