<svg width="1159" height="716" viewBox="0 0 1159 716" fill="none" xmlns="http://www.w3.org/2000/svg">
<path d="M587 283.5H766C768.485 283.5 770.5 285.515 770.5 288V500C770.5 502.485 768.485 504.5 766 504.5H587C584.515 504.5 582.5 502.485 582.5 500V288C582.5 285.515 584.515 283.5 587 283.5Z" stroke="#2A759A"/>
<path d="M587 56.5H766C768.485 56.5 770.5 58.5147 770.5 61V273C770.5 275.485 768.485 277.5 766 277.5H587C584.515 277.5 582.5 275.485 582.5 273V61C582.5 58.5147 584.515 56.5 587 56.5Z" stroke="#2A759A"/>
<path d="M587 510.5H766C768.485 510.5 770.5 512.515 770.5 515V727C770.5 729.485 768.485 731.5 766 731.5H587C584.515 731.5 582.5 729.485 582.5 727V515C582.5 512.515 584.515 510.5 587 510.5Z" stroke="#2A759A"/>
<path d="M975 283.5H1154C1156.49 283.5 1158.5 285.515 1158.5 288V500C1158.5 502.485 1156.49 504.5 1154 504.5H975C972.515 504.5 970.5 502.485 970.5 500V288C970.5 285.515 972.515 283.5 975 283.5Z" stroke="#2A759A"/>
<path d="M975 56.5H1154C1156.49 56.5 1158.5 58.5147 1158.5 61V273C1158.5 275.485 1156.49 277.5 1154 277.5H975C972.515 277.5 970.5 275.485 970.5 273V61C970.5 58.5147 972.515 56.5 975 56.5Z" stroke="#2A759A"/>
<path d="M975 510.5H1154C1156.49 510.5 1158.5 512.515 1158.5 515V727C1158.5 729.485 1156.49 731.5 1154 731.5H975C972.515 731.5 970.5 729.485 970.5 727V515C970.5 512.515 972.515 510.5 975 510.5Z" stroke="#2A759A"/>
<path d="M781 395.5H960C962.485 395.5 964.5 397.515 964.5 400V612C964.5 614.485 962.485 616.5 960 616.5H781C778.515 616.5 776.5 614.485 776.5 612V400C776.5 397.515 778.515 395.5 781 395.5Z" stroke="#2A759A"/>
<path d="M781 622.5H960C962.485 622.5 964.5 624.515 964.5 627V839C964.5 841.485 962.485 843.5 960 843.5H781C778.515 843.5 776.5 841.485 776.5 839V627C776.5 624.515 778.515 622.5 781 622.5Z" stroke="#2A759A"/>
<path d="M781 168.5H960C962.485 168.5 964.5 170.515 964.5 173V385C964.5 387.485 962.485 389.5 960 389.5H781C778.515 389.5 776.5 387.485 776.5 385V173C776.5 170.515 778.515 168.5 781 168.5Z" stroke="#2A759A"/>
<path d="M781 -58.5H960C962.485 -58.5 964.5 -56.4853 964.5 -54V158C964.5 160.485 962.485 162.5 960 162.5H781C778.515 162.5 776.5 160.485 776.5 158V-54C776.5 -56.4853 778.515 -58.5 781 -58.5Z" stroke="#2A759A"/>
<path d="M393 170.5H572C574.485 170.5 576.5 172.515 576.5 175V387C576.5 389.485 574.485 391.5 572 391.5H393C390.515 391.5 388.5 389.485 388.5 387V175C388.5 172.515 390.515 170.5 393 170.5Z" stroke="#2A759A"/>
<path d="M393 397.5H572C574.485 397.5 576.5 399.515 576.5 402V614C576.5 616.485 574.485 618.5 572 618.5H393C390.515 618.5 388.5 616.485 388.5 614V402C388.5 399.515 390.515 397.5 393 397.5Z" stroke="#2A759A"/>
<path d="M393 624.5H572C574.485 624.5 576.5 626.515 576.5 629V841C576.5 843.485 574.485 845.5 572 845.5H393C390.515 845.5 388.5 843.485 388.5 841V629C388.5 626.515 390.515 624.5 393 624.5Z" stroke="#2A759A"/>
<path d="M199 510.5H378C380.485 510.5 382.5 512.515 382.5 515V727C382.5 729.485 380.485 731.5 378 731.5H199C196.515 731.5 194.5 729.485 194.5 727V515C194.5 512.515 196.515 510.5 199 510.5Z" stroke="#2A759A"/>
<path d="M5 622.5H184C186.485 622.5 188.5 624.515 188.5 627V839C188.5 841.485 186.485 843.5 184 843.5H5C2.51472 843.5 0.5 841.485 0.5 839V627C0.5 624.515 2.51472 622.5 5 622.5Z" stroke="#2A759A"/>
</svg>
